<svg id="Capa_1" enable-background="new 0 0 512.433 512.433" height="512" viewBox="0 0 512.433 512.433" width="512" xmlns="http://www.w3.org/2000/svg"><g><path d="m402.376 398.188 49.439-56.656 12.587-9.269c7.067-21.553 10.89-44.563 10.89-68.48 0-14.065-1.325-27.811-3.85-41.14l-17.955-11.716-56.08-98.721 3.905-12.813c-27.98-24.813-62.314-42.593-100.293-50.56l-45.368-4.69-64.505 24.371-111.208 125.1 1.171 170.179 135.554 107.024c24.408 11.852 82.518 8.033 84.373 7.908 44.022-9.242 83.157-31.671 113.158-62.954z" fill="#a6e7f0"/><g><g id="XMLID_146_"><g><path d="m471.441 222.643h-125.55c-6.22 0-11.85-2.52-15.92-6.6-4.08-4.07-6.6-9.7-6.6-15.92 0-12.43 10.08-22.51 22.52-22.51h24.69c4.41 0 8.41-1.79 11.31-4.69 2.89-2.89 4.68-6.89 4.68-11.31 0-8.84-7.16-16-15.99-16h-7.98c-6.39 0-12.16-2.59-16.34-6.77-4.19-4.18-6.77-9.96-6.77-16.34 0-12.76 10.34-23.11 23.11-23.11h38.71c35.63 31.58 60.91 74.57 70.13 123.25z" fill="#ade194"/></g></g><g id="XMLID_147_"><g><path d="m267.081 332.263h197.32c-8.55 26.09-21.86 50.03-38.9 70.79h-43.66c-10.26 0-18.58-8.31-18.58-18.57v-6.48c0-4.03-3.26-7.3-7.3-7.3h-88.88c-10.61 0-19.22-8.6-19.22-19.22 0-5.31 2.15-10.12 5.63-13.59 3.48-3.48 8.28-5.63 13.59-5.63z" fill="#ade194"/></g></g><path d="m141.688 370.704h12.848c-6.72-12.032-12.341-24.76-16.727-38.051-8.756 1.794-15.343 9.543-15.343 18.83.001 10.616 8.606 19.221 19.222 19.221z" fill="#97da7b"/><path d="m126.78 263.783c0-105.749 74.764-194.029 174.293-214.938-14.645-3.077-29.862-4.702-45.422-4.702-59.391 0-113.264 23.578-152.797 61.873l26.728 2.782-47.471 52.22-31.647 117.589-12.271 16.131c15.043 106.648 106.657 188.685 217.458 188.685 15.561 0 30.759-1.626 45.405-4.703-99.53-20.909-174.276-109.188-174.276-214.937z" fill="#6bd9e7"/><g id="XMLID_148_"><g><path d="m269.551 225.663c3.82 3.83 6.19 9.12 6.19 14.96 0 11.68-9.47 21.15-21.15 21.15h-155.22c0 18.21-14.76 32.98-32.98 32.98h-25.16-3.05c-1.43-10.12-2.17-20.46-2.17-30.97 0-52.72 18.57-101.1 49.53-138.95h137.87c7.92 0 15.08 3.21 20.27 8.4s8.4 12.36 8.4 20.28c0 15.84-12.84 28.68-28.67 28.68h-15.96c-10.3 0-18.64 8.34-18.64 18.64 0 10.29 8.34 18.64 18.64 18.64h47.14c5.84 0 11.13 2.37 14.96 6.19z" fill="#ade194"/></g></g><g><path d="m94.343 62.04c-4.142 0-7.5-3.358-7.5-7.5v-38.725c0-4.142 3.358-7.5 7.5-7.5s7.5 3.358 7.5 7.5v38.725c0 4.142-3.358 7.5-7.5 7.5z" fill="#fec165"/></g><g><path d="m174.671 103.857h-17.05l-18.627-.231c-4.142-.052-7.458-3.451-7.406-7.593s3.432-7.504 7.593-7.406l18.534.231h16.957c4.142 0 7.5 3.358 7.5 7.5s-3.359 7.499-7.501 7.499z" fill="#fec165"/></g><path d="m176.334 124.833h-90.793c-30.96 37.85-49.53 86.23-49.53 138.95 0 10.51.74 20.85 2.17 30.97h3.05 25.16c18.22 0 32.98-14.77 32.98-32.98h27.431c.466-51.939 18.958-99.569 49.532-136.94z" fill="#97da7b"/><g><path d="m94.343 186.168c-4.142 0-7.5-3.358-7.5-7.5v-19.032l.24-23.613c.042-4.142 3.396-7.494 7.576-7.423 4.142.042 7.466 3.434 7.423 7.576l-.24 23.537v18.956c.001 4.141-3.357 7.499-7.499 7.499z" fill="#fec165"/></g><g><path d="m7.5 103.857c-4.142 0-7.5-3.358-7.5-7.5s3.358-7.5 7.5-7.5h23.565l27.059-.23h.065c4.112 0 7.463 3.316 7.498 7.436.036 4.142-3.293 7.528-7.436 7.563l-27.123.231z" fill="#fec165"/></g><g><path d="m73.609 82.503c-1.887 0-3.775-.708-5.233-2.128l-24.011-23.39-15.068-15.067c-2.929-2.929-2.929-7.678 0-10.606 2.929-2.929 7.678-2.929 10.606 0l14.999 14.998 23.941 23.322c2.967 2.89 3.029 7.639.139 10.605-1.47 1.509-3.421 2.266-5.373 2.266z" fill="#fec165"/></g><g><path d="m124.392 73.31c-1.943 0-3.884-.75-5.352-2.246-2.902-2.956-2.858-7.704.097-10.606l14.696-14.428 16.347-16.348c2.929-2.929 7.678-2.929 10.606 0 2.929 2.929 2.929 7.678 0 10.606l-16.396 16.396-14.745 14.477c-1.459 1.434-3.357 2.149-5.253 2.149z" fill="#fec165"/></g><g><path d="m150.378 159.892c-1.919 0-3.839-.732-5.303-2.197l-11.291-11.29c-.034-.034-.067-.067-.1-.102l-18.235-18.942c-2.873-2.984-2.782-7.732.202-10.605s7.731-2.783 10.605.202l18.186 18.891 11.24 11.24c2.929 2.929 2.929 7.677 0 10.606-1.465 1.464-3.385 2.197-5.304 2.197z" fill="#fec165"/></g><g><path d="m22.683 175.518c-1.919 0-3.839-.732-5.303-2.197-2.929-2.929-2.929-7.678 0-10.606l26.808-26.808 19.266-20.906c2.807-3.046 7.552-3.24 10.598-.433s3.24 7.552.433 10.598l-19.37 21.019c-.069.075-.14.148-.212.221l-26.916 26.916c-1.466 1.463-3.385 2.196-5.304 2.196z" fill="#fec165"/></g><circle cx="94.343" cy="96.126" fill="#fece85" r="63.278"/><g><path d="m28.09 180.694c-1.919 0-3.839-.732-5.303-2.197l-10.687-10.686c-2.929-2.929-2.929-7.677 0-10.606s7.678-2.93 10.606 0l10.687 10.686c2.929 2.929 2.929 7.677 0 10.606-1.464 1.464-3.383 2.197-5.303 2.197z" fill="#fec165"/></g><g><path d="m7.5 108.798c-4.142 0-7.5-3.358-7.5-7.5v-10.974c0-4.142 3.358-7.5 7.5-7.5s7.5 3.358 7.5 7.5v10.974c0 4.142-3.358 7.5-7.5 7.5z" fill="#fec165"/></g><circle cx="68.968" cy="68.513" fill="#fec165" r="25.615"/><g><path d="m88.513 133.434h-3.218c-4.142 0-7.5-3.358-7.5-7.5s3.358-7.5 7.5-7.5h3.218c4.142 0 7.5 3.358 7.5 7.5s-3.358 7.5-7.5 7.5z" fill="#fec165"/></g><g><path d="m127.931 100.291h-7.079c-4.142 0-7.5-3.358-7.5-7.5s3.358-7.5 7.5-7.5h7.079c4.142 0 7.5 3.358 7.5 7.5s-3.358 7.5-7.5 7.5z" fill="#fec165"/></g><g><path d="m408.812 423.094c-1.265 0-2.546-.32-3.723-.994l-14.375-8.239-15.214-8.565c-3.609-2.032-4.888-6.605-2.856-10.215 2.033-3.61 6.606-4.888 10.215-2.856l15.265 8.593 14.426 8.267c3.594 2.06 4.837 6.643 2.778 10.237-1.388 2.418-3.916 3.772-6.516 3.772z" fill="#f37c7c"/></g><g><path d="m493.846 470.816c-1.246 0-2.509-.311-3.672-.966l-12.996-7.315c-.067-.038-.133-.077-.199-.116l-13.697-8.276c-3.545-2.142-4.683-6.753-2.541-10.298s6.752-4.684 10.298-2.541l13.598 8.216 12.896 7.259c3.609 2.032 4.888 6.605 2.856 10.215-1.378 2.446-3.923 3.822-6.543 3.822z" fill="#f37c7c"/></g><g><path d="m401.683 501.054c-1.354 0-2.726-.367-3.96-1.136-3.515-2.191-4.588-6.817-2.397-10.332l11.637-18.669 8.508-13.766c2.178-3.523 6.799-4.615 10.323-2.437 3.523 2.178 4.615 6.799 2.437 10.323l-8.523 13.791-11.652 18.694c-1.423 2.279-3.87 3.532-6.373 3.532z" fill="#f37c7c"/></g><g><path d="m373.889 457.008c-3.28 0-6.292-2.168-7.219-5.482-1.116-3.989 1.214-8.127 5.203-9.243l16.006-4.476 18.95-5.215c3.99-1.102 8.122 1.247 9.221 5.241s-1.247 8.122-5.241 9.221l-18.919 5.207-15.976 4.468c-.676.189-1.356.279-2.025.279z" fill="#f37c7c"/></g><g><path d="m428.346 406.263c-3.297 0-6.319-2.191-7.23-5.525l-4.054-14.835-4.881-17.455c-1.116-3.989 1.214-8.127 5.203-9.243 3.991-1.115 8.127 1.214 9.243 5.203l4.893 17.498 4.065 14.878c1.092 3.996-1.262 8.12-5.258 9.212-.661.18-1.327.267-1.981.267z" fill="#f37c7c"/></g><g><path d="m467.154 430.309c-3.372 0-6.437-2.291-7.277-5.711-.989-4.022 1.471-8.085 5.493-9.074l18.126-4.456 19.416-5.43c3.991-1.112 8.127 1.214 9.243 5.203 1.115 3.989-1.214 8.127-5.203 9.243l-19.53 5.461c-.076.021-.153.041-.23.06l-18.241 4.484c-.602.149-1.204.22-1.797.22z" fill="#f37c7c"/></g><g><path d="m455.806 504.118c-3.28 0-6.292-2.168-7.219-5.482l-4.775-17.077-5.017-16.001c-1.239-3.952.96-8.161 4.913-9.4 3.951-1.239 8.161.96 9.4 4.913l5.051 16.112c.023.074.046.149.067.224l4.807 17.189c1.115 3.989-1.214 8.127-5.203 9.243-.676.189-1.355.279-2.024.279z" fill="#f37c7c"/></g><g><path d="m462.899 417.849c-1.529 0-3.072-.466-4.403-1.434-3.351-2.435-4.092-7.125-1.657-10.476l9.914-13.639c.024-.033.049-.066.074-.1l8.038-10.683c2.49-3.309 7.193-3.975 10.502-1.484 3.31 2.49 3.974 7.192 1.484 10.502l-8 10.633-9.878 13.589c-1.469 2.02-3.755 3.092-6.074 3.092z" fill="#f37c7c"/></g><circle cx="437.65" cy="431.677" fill="#f79595" r="49.583"/><g><path d="m405.215 503.043c-1.246 0-2.509-.311-3.672-.966l-7.493-4.218c-3.609-2.032-4.888-6.605-2.856-10.215 2.033-3.609 6.606-4.888 10.215-2.856l7.493 4.218c3.609 2.032 4.888 6.605 2.856 10.215-1.378 2.446-3.923 3.822-6.543 3.822z" fill="#f37c7c"/></g><g><path d="m430.597 423.093h-4.494c-4.142 0-7.5-3.358-7.5-7.5s3.358-7.5 7.5-7.5h4.494c4.142 0 7.5 3.358 7.5 7.5s-3.358 7.5-7.5 7.5z" fill="#f37c7c"/></g><g><path d="m448.573 452.53h-5.243c-4.142 0-7.5-3.358-7.5-7.5s3.358-7.5 7.5-7.5h5.243c4.142 0 7.5 3.358 7.5 7.5s-3.358 7.5-7.5 7.5z" fill="#f37c7c"/></g><g><path d="m97.125 445.003c-1.142 0-2.301-.261-3.389-.813l-12.714-6.453c-.096-.049-.191-.1-.285-.152l-10.709-6.029c-3.609-2.032-4.888-6.605-2.856-10.215 2.032-3.609 6.605-4.888 10.215-2.856l10.569 5.95 12.57 6.38c3.693 1.875 5.168 6.389 3.293 10.083-1.322 2.603-3.959 4.105-6.694 4.105z" fill="#5de1c4"/></g><g><path d="m123.678 438.761c-1.318 0-2.652-.347-3.863-1.077-3.548-2.138-4.691-6.747-2.553-10.294l8.054-13.366 10.211-18.14c2.032-3.609 6.606-4.888 10.215-2.856s4.888 6.605 2.856 10.215l-10.266 18.236c-.036.064-.074.128-.112.191l-8.111 13.461c-1.407 2.337-3.888 3.63-6.431 3.63z" fill="#5de1c4"/></g><g><path d="m154.158 477.813c-1.246 0-2.509-.311-3.672-.966l-9.118-5.133c-.112-.063-.222-.129-.331-.198l-14.29-9.041c-3.5-2.215-4.542-6.848-2.328-10.348s6.846-4.543 10.348-2.328l14.126 8.938 8.95 5.038c3.609 2.032 4.888 6.605 2.856 10.215-1.376 2.447-3.921 3.823-6.541 3.823z" fill="#5de1c4"/></g><g><path d="m89.495 499.027c-1.354 0-2.726-.367-3.96-1.136-3.515-2.191-4.588-6.817-2.397-10.332l8.165-13.099c.038-.061.077-.122.117-.181l7.093-10.683c2.291-3.452 6.947-4.39 10.396-2.1 3.451 2.291 4.391 6.946 2.1 10.396l-7.034 10.593-8.107 13.007c-1.423 2.282-3.869 3.535-6.373 3.535z" fill="#5de1c4"/></g><g><path d="m69.996 468.125c-3.28 0-6.292-2.168-7.219-5.482-1.116-3.989 1.213-8.127 5.203-9.243l11.162-3.122 19.349-5.81c3.963-1.189 8.148 1.059 9.34 5.026 1.191 3.967-1.059 8.148-5.026 9.34l-19.417 5.831c-.045.014-.091.027-.137.04l-11.23 3.141c-.677.188-1.357.279-2.025.279z" fill="#5de1c4"/></g><g><path d="m109.032 436.776c-3.359 0-6.416-2.273-7.269-5.679l-3.65-14.565-3.405-12.178c-1.116-3.989 1.214-8.127 5.203-9.243 3.988-1.117 8.127 1.214 9.243 5.203l3.433 12.276c.019.065.036.131.052.197l3.675 14.664c1.007 4.018-1.434 8.091-5.452 9.098-.612.154-1.226.227-1.83.227z" fill="#5de1c4"/></g><g><path d="m131.791 450.269c-3.375 0-6.441-2.294-7.279-5.719-.984-4.023 1.479-8.083 5.502-9.068l16.319-3.993 13.584-3.799c3.988-1.116 8.127 1.214 9.243 5.203s-1.214 8.127-5.203 9.243l-13.703 3.832c-.079.022-.158.043-.237.063l-16.438 4.022c-.599.145-1.198.216-1.788.216z" fill="#5de1c4"/></g><g><path d="m127.469 501.177c-3.28 0-6.292-2.168-7.219-5.482l-3.35-11.982-4.18-13.793c-1.201-3.964 1.039-8.152 5.002-9.353 3.964-1.203 8.151 1.038 9.353 5.002l4.204 13.871c.016.052.031.104.045.156l3.372 12.06c1.115 3.989-1.214 8.127-5.204 9.243-.675.188-1.354.278-2.023.278z" fill="#5de1c4"/></g><circle cx="114.732" cy="448.113" fill="#86e8d0" r="34.788"/><g><path d="m147.615 410.194c-1.246 0-2.509-.311-3.672-.966l-11.206-6.308c-3.609-2.032-4.888-6.605-2.856-10.215 2.032-3.609 6.606-4.888 10.215-2.856l11.206 6.308c3.609 2.032 4.888 6.605 2.856 10.215-1.378 2.446-3.923 3.822-6.543 3.822z" fill="#5de1c4"/></g><g><path d="m109.784 444.329h-3.153c-4.142 0-7.5-3.358-7.5-7.5s3.358-7.5 7.5-7.5h3.153c4.142 0 7.5 3.358 7.5 7.5s-3.358 7.5-7.5 7.5z" fill="#5de1c4"/></g><g><path d="m122.396 464.982h-3.679c-4.142 0-7.5-3.358-7.5-7.5s3.358-7.5 7.5-7.5h3.679c4.142 0 7.5 3.358 7.5 7.5s-3.358 7.5-7.5 7.5z" fill="#5de1c4"/></g></g><path d="m141.688 370.704h30.236c10.616 0 19.222-8.606 19.222-19.222 0-10.616-8.606-19.222-19.222-19.222h-30.236c-10.616 0-19.222 8.606-19.222 19.222.001 10.617 8.606 19.222 19.222 19.222z" fill="#ade194"/></g></svg>