<svg id="Layer_1" enable-background="new 0 0 512 512" height="512" viewBox="0 0 512 512" width="512" xmlns="http://www.w3.org/2000/svg"><g><g><path d="m497 451h-482c-8.284 0-15-6.716-15-15v-360c0-8.284 6.716-15 15-15h482c8.284 0 15 6.716 15 15v360c0 8.284-6.716 15-15 15z" fill="#bee75e"/></g><path d="m497 61h-241.011v390h241.011c8.284 0 15-6.716 15-15v-360c0-8.284-6.716-15-15-15z" fill="#00cb75"/><g><path d="m256 391c-2.852 0-5.704-.812-8.194-2.436l-184-120c-4.246-2.769-6.806-7.495-6.806-12.564s2.56-9.795 6.806-12.564l184-120c4.979-3.248 11.408-3.248 16.388 0l184 120c4.246 2.77 6.806 7.496 6.806 12.564s-2.56 9.795-6.806 12.564l-184 120c-2.489 1.624-5.341 2.436-8.194 2.436z" fill="#fff36c"/></g><path d="m448.194 243.437-184-120c-2.493-1.626-5.349-2.438-8.205-2.436v269.999h.011c2.852 0 5.704-.812 8.194-2.436l184-120c4.246-2.769 6.806-7.495 6.806-12.564s-2.56-9.794-6.806-12.563z" fill="#ffde46"/><path clip-rule="evenodd" d="m256.001 351c24.614 0 47.094-9.444 64-24.894 5.57-5.091 3.762-20.834 8-27.106 2.985-4.418 12.382.901 14.602-4 5.393-11.909 8.398-25.115 8.398-39 0-52.324-42.676-94.999-94.999-94.999-31.413 0-59.349 15.382-76.66 38.999-3.657 4.988 7.301 9.344 4.66 15-2.811 6.02-19.149 13.381-20.653 20-1.535 6.759-2.346 13.788-2.346 21-.002 52.324 42.674 95 94.998 95z" fill="#00429d" fill-rule="evenodd"/><path clip-rule="evenodd" d="m256.001 161.001c-.004 0-.008 0-.011 0v189.999h.011c24.614 0 47.094-9.444 64-24.894 5.57-5.091 3.762-20.834 8-27.106 2.985-4.418 12.382.901 14.602-4 5.393-11.909 8.398-25.115 8.398-39-.001-52.324-42.676-94.999-95-94.999z" fill="#00347b" fill-rule="evenodd"/><path d="m342.677 294.826c-8.59-23.622-23.149-44.827-42.453-61.391-26.651-22.868-60.668-35.462-95.786-35.462-8.497 0-16.911.734-25.197 2.174-7.586 10.389-13.117 22.362-15.991 35.318 13.211-4.967 27.058-7.491 41.188-7.491 57.825 0 106.227 41.205 115.544 98.146 9.549-8.724 17.32-19.36 22.695-31.294z" fill="#fff4f4"/><path d="m300.224 233.435c-13.193-11.32-28.192-20.118-44.235-26.121v32.445c33.201 16.146 57.652 47.605 63.993 86.361 9.548-8.722 17.319-19.359 22.695-31.293-8.589-23.623-23.148-44.828-42.453-61.392z" fill="#f6efea"/></g></svg>